<?xml version="1.0" standalone="no"?>
<!DOCTYPE svg PUBLIC "-//W3C//DTD SVG 20010904//EN"
 "http://www.w3.org/TR/2001/REC-SVG-20010904/DTD/svg10.dtd">
<svg version="1.0" xmlns="http://www.w3.org/2000/svg"
 width="108.000000pt" height="108.000000pt" viewBox="0 0 108.000000 108.000000"
 preserveAspectRatio="xMidYMid meet">
<metadata>
Created by potrace 1.11, written by Peter Selinger 2001-2013
</metadata>
<g transform="translate(0.000000,108.000000) scale(0.100000,-0.100000)"
fill="#000000" stroke="none">
<path d="M226 578 c108 -216 198 -395 200 -397 3 -3 394 774 394 784 0 3 -35
5 -78 5 l-77 0 -119 -237 -118 -238 -119 238 -119 237 -80 0 -80 0 196 -392z"/>
<path d="M942 803 c-15 -6 -42 -56 -42 -78 0 -25 55 -75 83 -75 42 0 77 36 77
79 0 61 -59 98 -118 74z"/>
<path d="M939 480 c-29 -17 -43 -65 -27 -97 30 -63 109 -65 140 -4 19 38 9 85
-22 101 -23 13 -70 12 -91 0z"/>
</g>
</svg>
